<?xml version="1.0" standalone="no"?>
<!DOCTYPE svg PUBLIC "-//W3C//DTD SVG 20010904//EN"
 "http://www.w3.org/TR/2001/REC-SVG-20010904/DTD/svg10.dtd">
<svg version="1.0" xmlns="http://www.w3.org/2000/svg"
 width="1280.000000pt" height="1280.000000pt" viewBox="0 0 1280.000000 1280.000000"
 preserveAspectRatio="xMidYMid meet">
<g transform="translate(0.000000,1280.000000) scale(0.100000,-0.100000)"
fill="#000000" stroke="none">
<path d="M1985 11199 c-225 -24 -435 -92 -704 -229 -587 -299 -940 -739 -1106
-1374 -95 -365 -132 -788 -122 -1416 7 -470 25 -672 87 -980 148 -736 532
-1235 1198 -1556 323 -156 527 -206 837 -206 811 2 1877 519 3094 1500 154
124 181 142 181 124 0 -5 -55 -94 -123 -198 -774 -1185 -1170 -2151 -1133
-2763 23 -384 19 -513 -25 -721 -119 -575 -516 -1269 -1063 -1863 l-127 -137
730 0 730 0 36 56 c137 213 346 597 465 853 313 673 442 1216 387 1636 -33
255 -29 476 14 800 83 622 322 1492 643 2343 80 211 183 462 194 474 4 3 57 2
118 -5 79 -7 132 -8 180 0 38 5 74 8 80 6 25 -9 260 -620 399 -1038 253 -760
411 -1432 466 -1970 17 -172 15 -440 -6 -595 -48 -370 30 -796 248 -1335 133
-331 313 -689 521 -1035 l111 -185 733 -3 733 -2 -113 122 c-540 585 -930
1249 -1063 1812 -48 205 -58 313 -49 526 14 325 10 488 -15 635 -109 631 -478
1427 -1108 2388 -117 179 -133 207 -115 207 4 0 75 -54 157 -121 1226 -988
2297 -1509 3110 -1511 289 0 453 35 740 162 460 203 795 482 1017 850 173 287
285 656 332 1100 48 442 48 1102 1 1540 -101 927 -461 1497 -1186 1874 -461
240 -811 293 -1315 201 -888 -164 -2081 -882 -3301 -1988 l-143 -129 -82 22
c-159 42 -398 38 -545 -7 l-52 -16 -87 79 c-597 543 -1199 1007 -1754 1351
-858 532 -1623 783 -2205 722z m-25 -1229 c641 -57 1778 -444 3302 -1124 511
-228 461 -202 454 -239 -14 -69 -18 -408 -6 -503 6 -53 9 -98 7 -101 -10 -9
-609 -277 -902 -403 -944 -404 -1701 -678 -2269 -820 -298 -75 -460 -101 -662
-107 -228 -7 -276 4 -477 106 -262 132 -436 259 -627 458 -173 180 -290 353
-376 557 -133 315 -149 616 -48 925 156 475 534 887 1050 1145 222 111 309
127 554 106z m9143 -11 c78 -16 338 -145 477 -236 436 -289 725 -674 838
-1121 24 -96 27 -124 26 -282 0 -156 -3 -187 -26 -282 -74 -295 -225 -559
-457 -800 -189 -197 -391 -343 -646 -468 -189 -93 -235 -103 -455 -97 -206 5
-364 31 -666 107 -569 142 -1302 407 -2244 810 -297 127 -769 336 -894 396
l-38 19 7 55 c23 186 23 401 0 537 l-7 42 68 31 c1259 580 2412 1021 3139
1200 408 101 679 128 878 89z"/>
</g>
</svg>
