<svg width="16" height="16" viewBox="0 0 16 16" fill="#eee" xmlns="http://www.w3.org/2000/svg">
<path d="M12.7082 1.52824L8.00001 6.23646L3.29179 1.52824C2.8048 1.04125 2.01523 1.04125 1.52824 1.52824C1.04125 2.01523 1.04125 2.8048 1.52824 3.29179L6.23646 8.00001L1.52824 12.7082C1.04125 13.1952 1.04125 13.9848 1.52824 14.4718C2.01523 14.9588 2.8048 14.9588 3.29179 14.4718L8.00001 9.76357L12.7082 14.4718C13.1952 14.9588 13.9848 14.9588 14.4718 14.4718C14.9588 13.9848 14.9588 13.1952 14.4718 12.7082L9.76357 8.00001L14.4718 3.29179C14.9588 2.8048 14.9588 2.01523 14.4718 1.52824C13.9848 1.04125 13.1952 1.04125 12.7082 1.52824Z" fill="black" stroke="black" stroke-width="0.5"/>
</svg>
